
<svg xmlns="http://www.w3.org/2000/svg" xmlns:xlink="http://www.w3.org/1999/xlink" preserveAspectRatio="xMidYMid meet" version="1.0" viewBox="0.0 0.0 386.5 164.1" zoomAndPan="magnify" style="fill: rgb(0, 0, 0);" original_string_length="2187" width="365.6px" height="154.88145454545457px"><g id="__id34_sv49pdx18"><path d="M386.5,77.9v13.3v0.3c0,0.1,0,0.1,0,0.2c0,40-32.4,72.4-72.4,72.4H72.4l0,0l0,0c-40,0-72.4-32.5-72.4-72.4 c0-0.2,0-0.3,0-0.5s0-0.3,0-0.5V77.9H386.5z M386.5,77.9v13.3v0.3c0,0.1,0,0.1,0,0.2c0,40-32.4,72.4-72.4,72.4H72.4l0,0l0,0 c-40,0-72.4-32.5-72.4-72.4c0-0.2,0-0.3,0-0.5s0-0.3,0-0.5V77.9H386.5z" style="fill: rgb(252, 169, 161);"/></g><g id="__id35_sv49pdx18"><path d="M386.5,71.9v0.3c0,0.1,0,0.1,0,0.2c0,40-32.4,72.4-72.4,72.4H72.4l0,0l0,0c-40,0-72.4-32.5-72.4-72.4 c0-0.2,0-0.3,0-0.5s0-0.3,0-0.5C0.6,31.9,32.7,0,72.4,0l0,0h241.7l0,0c0,0,0,0,0.1,0C353.9,0,386.2,32.1,386.5,71.9z M386.5,71.9 v0.3c0,0.1,0,0.1,0,0.2c0,40-32.4,72.4-72.4,72.4H72.4l0,0l0,0c-40,0-72.4-32.5-72.4-72.4c0-0.2,0-0.3,0-0.5s0-0.3,0-0.5 C0.6,31.9,32.7,0,72.4,0l0,0h241.7l0,0c0,0,0,0,0.1,0C353.9,0,386.2,32.1,386.5,71.9z" style="fill: rgb(233, 93, 56);"/></g><g id="__id36_sv49pdx18"><path d="M124.6,73c1.1,1.9,1.6,4.1,1.6,6.8v4.6c0,4.1-1.2,7.3-3.6,9.7s-5.6,3.6-9.7,3.6H98.8v-56h13.4 c4.1,0,7.3,1.2,9.7,3.6c2.4,2.4,3.6,5.7,3.6,9.7v3c0,5-1.9,8.6-5.7,10.7C121.9,69.7,123.5,71.2,124.6,73z M107.3,49.7v15.2h3.8 c2,0,3.5-0.5,4.5-1.5s1.5-2.5,1.5-4.5v-4c0-1.7-0.5-2.9-1.4-3.8c-0.9-0.9-2.2-1.4-3.8-1.4H107.3z M117.8,78.9c0-2-0.5-3.5-1.5-4.5 s-2.5-1.5-4.5-1.5h-4.5v16.8h5.3c1.7,0,2.9-0.5,3.8-1.4s1.4-2.2,1.4-3.8C117.8,84.5,117.8,78.9,117.8,78.9z M160.8,85.3h-9.1 l-1.8,12.4h-8.5l9.3-56H162l9.3,56h-8.6L160.8,85.3z M159.7,77.2l-3.4-23.4l-3.4,23.4H159.7z M191.1,94.9c-2.5-2.5-3.7-5.7-3.7-9.6 v-31c0-3.9,1.2-7.1,3.7-9.6s5.7-3.7,9.6-3.7c3.9,0,7.1,1.2,9.6,3.7s3.7,5.7,3.7,9.6v6.6h-8.3v-6.6c0-1.6-0.5-2.9-1.4-3.8 c-0.9-1-2.1-1.4-3.5-1.4s-2.6,0.5-3.5,1.4c-0.9,1-1.4,2.2-1.4,3.8v31c0,1.6,0.5,2.9,1.4,3.8c0.9,1,2.1,1.4,3.5,1.4s2.6-0.5,3.5-1.4 c0.9-1,1.4-2.2,1.4-3.8v-8h8.3v8c0,3.9-1.2,7.1-3.7,9.6s-5.7,3.7-9.6,3.7C196.8,98.5,193.6,97.3,191.1,94.9z M243.9,74.7l-3.2,6.2 v16.9h-8.5v-56h8.5v22.7l11.2-22.7h9.1l-11.9,23.8l12.8,32.2h-9.1L243.9,74.7z M276.3,69.7l23,19.2V50.5L276.3,69.7z" style="fill: rgb(255, 255, 255);"/></g></svg>